<svg xmlns="http://www.w3.org/2000/svg" width="16" height="16" viewBox="0 0 16 16" fill="none"><g transform="matrix(1 0 0 1 2.29 0)"><path d="M5.713 0 C2.558 0 0 2.558 0 5.713 C0 10.466 5.09 15.614 5.307 15.831 C5.53 16.055 5.891 16.056 6.115 15.834 L6.119 15.831 C6.336 15.614 11.426 10.466 11.426 5.713 C11.426 2.558 8.868 0 5.713 0 Z M5.713 7.998 C4.451 7.998 3.428 6.975 3.428 5.713 C3.428 4.451 4.451 3.428 5.713 3.428 C6.975 3.428 7.998 4.451 7.998 5.713 C7.998 6.975 6.975 7.998 5.713 7.998 Z" fill="#ffd325"/></g></svg>