<svg xmlns="http://www.w3.org/2000/svg" width="257" height="50" viewBox="0 0 257 50" fill="none"><g transform="matrix(1 0 0 1 1.12 29.51)"><path d="M23.021 11.816 C12.618 10.816 3.411 5.794 0 0 C0.177 1.086 1.408 3.459 1.972 5.023 C2.383 6.168 2.979 7.101 3.258 7.941 C7.565 11.007 12.506 12.609 19.3 13.262 C26.304 13.934 32.463 13.072 37.32 10.74 C33.058 11.831 28.363 12.327 23.021 11.816 Z" fill="#ffd502"/></g><g transform="matrix(1 0 0 1 3.73 8.53)"><path d="M12.299 11.73 C8.718 7.814 5.503 3.857 2.718 0 C2.343 0.494 1.921 1.073 1.478 1.729 C0.865 2.629 0.372 3.472 0 4.174 C2.74 7.194 5.776 10.242 9.066 13.233 C18.44 21.761 27.574 27.296 34.873 31.288 C28.293 26.417 20.317 20.488 12.299 11.73 Z" fill="#ffd502"/></g><g transform="matrix(1 0 0 1 18.21 0.27)"><path d="M12.621 13.07 C9.944 7.71 7.849 4.162 4.764 0 C4.364 0.043 3.692 0.381 2.507 0.567 C1.62 0.708 0.718 0.616 0 0.905 C4.498 5.655 8.127 10.623 12.118 17.773 C16.66 25.902 18.937 32.386 20.85 39.168 C20.039 31.358 17.669 23.176 12.621 13.07 Z" fill="#ffd502"/></g><g transform="matrix(1 0 0 1 0 0)"><path d="M26.456 49.609 C13.445 49.609 2.897 39.35 2.897 26.693 C2.897 14.038 13.379 4.146 26.392 4.146 C39.15 4.146 49.602 13.642 50.002 25.957 C50.015 25.64 50.023 25.321 50.023 25.002 C50.023 11.192 38.825 0 25.011 0 C11.199 0 0 11.192 0 25.002 C0 38.808 11.199 50 25.011 50 C27.704 50 30.297 49.573 32.727 48.786 C30.73 49.32 28.628 49.609 26.456 49.609 Z" fill="#005a9e"/></g><g transform="matrix(1 0 0 1 5.33 3.32)"><path d="M7.644 11.101 C16.56 1.96 30.432 1.267 38.627 9.555 C43.632 14.618 45.62 22.256 43.909 28.806 C46.227 21.012 44.808 12.178 38.923 6.225 C30.303 -2.494 15.766 -1.947 6.849 7.197 C0.978 13.218 -1.133 21.552 0.572 29.032 C0.327 22.752 2.71 16.161 7.644 11.101 Z" fill="#b51e83"/></g><g transform="matrix(1 0 0 1 10.67 8.3)"><path d="M38.131 18.965 C38.058 13.463 35.967 8.374 32.122 5.711 C24.685 0.565 13.132 4.59 5.931 15.169 C2.203 20.646 0.462 26.701 0.675 31.983 C-0.974 25.79 0.384 18.115 4.911 11.465 C12.113 0.887 24.596 -3.088 32.795 2.586 C37.652 5.946 40.012 11.986 39.552 18.512 C39.552 18.512 39.405 20.394 39.23 21.215 C39.064 21.995 38.634 23.685 38.463 24.183 C38.294 24.678 38.131 18.965 38.131 18.965 Z" fill="#009066"/></g><g transform="matrix(1 0 0 1 17.28 16.31)"><path d="M6.808 7.754 C-0.536 15.587 -2.198 26.007 3.096 31.028 C3.332 31.252 3.577 31.458 3.831 31.653 C-0.83 26.964 0.57 17.985 7.018 10.979 C12.945 4.537 23.028 1.721 27.908 6.351 C32.21 10.432 31.634 18.266 26.915 24.889 C33.454 17.198 34.749 7.465 29.688 2.666 C24.393 -2.354 14.149 -0.077 6.808 7.754 Z" fill="#f36f21"/></g><g transform="matrix(1 0 0 1 25.81 28.22)"><path d="M5.124 3.823 C0.181 8.143 -1.472 14.369 1.432 17.734 C3.709 20.368 8.106 20.463 12.28 18.301 C8.77 19.928 5.148 19.728 3.218 17.494 C0.641 14.511 2.052 9.036 6.367 5.263 C10.685 1.492 16.272 0.852 18.847 3.836 C20.779 6.071 20.471 9.705 18.378 12.974 C21.086 9.12 21.609 4.725 19.334 2.091 C16.43 -1.271 10.066 -0.497 5.124 3.823 Z" fill="#ed1c24"/></g><g transform="matrix(1 0 0 1 74.39 17.27)"><path d="M14.296 12.284 C12.436 13.445 10.866 13.799 8.526 13.799 L5.513 13.799 L3.718 22.278 L0 22.278 L4.744 0 L10.514 0 C13.239 0 14.873 0.419 15.963 1.161 C17.277 2.063 17.983 3.514 17.983 5.127 C17.982 8.448 16.475 10.898 14.296 12.284 Z M10.577 3.031 L7.788 3.031 L6.154 10.769 L9.039 10.769 C10.802 10.769 11.764 10.382 12.469 9.64 C13.431 8.641 14.008 7.222 14.008 5.868 C14.007 4.031 13.014 3.031 10.577 3.031 Z" fill="#ed1c24"/></g><g transform="matrix(1 0 0 1 92.11 24.69)"><path d="M9.364 3.3 C9.081 3.129 8.798 3.073 8.374 3.073 C7.384 3.073 6.28 3.842 5.036 5.605 L3.084 14.852 L0 14.852 L2.037 5.235 C2.461 3.272 2.432 2.191 2.15 1.195 L5.035 0 C5.346 0.74 5.46 1.821 5.262 2.817 C6.563 1.166 8.147 0.114 9.534 0.114 C10.042 0.114 10.297 0.171 10.721 0.341 L9.364 3.3 Z" fill="#ed1c24"/></g><g transform="matrix(1 0 0 1 101.5 24.81)"><path d="M4.979 15.08 C1.811 15.08 0 13.231 0 9.93 C0 4.382 3.367 0 8.119 0 C11.4 0 13.183 1.907 13.183 5.065 C13.184 10.329 10.241 15.08 4.979 15.08 Z M7.639 2.39 C4.81 2.39 3.339 6.943 3.339 10.215 C3.339 11.952 4.159 12.719 5.545 12.719 C8.317 12.719 9.817 8.451 9.817 4.951 C9.817 3.016 8.912 2.39 7.639 2.39 Z" fill="#ed1c24"/></g><g transform="matrix(1 0 0 1 117.18 16.88)"><path d="M15.546 4.191 C14.552 3.288 13.366 2.933 11.956 2.933 C10 2.933 8.206 3.998 6.891 5.706 C5.064 8.06 4.006 12.541 4.006 15.249 C4.006 18.441 5.609 20.117 8.494 20.117 C9.968 20.117 11.219 19.634 12.821 18.602 L14.136 21.053 C12.084 22.407 9.904 23.052 7.501 23.052 C2.789 23.052 0 20.054 0 15.12 C0 11.542 1.346 7.254 3.622 4.417 C5.897 1.548 9.231 0 12.501 0 C14.648 0 16.571 0.677 17.661 1.773 L15.546 4.191 Z" fill="#ed1c24"/></g><g transform="matrix(1 0 0 1 133.36 24.69)"><path d="M9.364 3.3 C9.08 3.129 8.798 3.073 8.373 3.073 C7.383 3.073 6.28 3.842 5.035 5.605 L3.083 14.852 L0 14.852 L2.036 5.235 C2.461 3.272 2.432 2.191 2.149 1.195 L5.035 0 C5.346 0.74 5.46 1.821 5.262 2.817 C6.563 1.166 8.147 0.114 9.533 0.114 C10.042 0.114 10.297 0.171 10.721 0.341 L9.364 3.3 Z" fill="#ed1c24"/></g><g transform="matrix(1 0 0 1 142.81 24.81)"><path d="M11.288 6.828 C10.1 7.995 8.148 8.649 5.206 8.649 C4.413 8.649 3.735 8.535 3.48 8.535 C3.424 8.82 3.311 9.588 3.311 10.044 C3.311 11.837 4.357 12.691 5.913 12.691 C7.412 12.691 8.629 12.178 9.958 11.124 L10.92 13.06 C9.194 14.455 7.497 15.108 5.092 15.108 C2.037 15.108 0 13.26 0 9.845 C0 6.971 1.245 3.869 3.197 1.964 C4.611 0.597 6.195 0 8.034 0 C10.806 0 12.56 1.281 12.56 3.841 C12.561 5.007 12.108 6.032 11.288 6.828 Z M7.639 2.333 C6.027 2.333 4.613 3.614 3.99 6.317 C4.16 6.317 4.754 6.402 5.235 6.402 C6.96 6.402 8.148 6.146 8.828 5.463 C9.195 5.093 9.422 4.638 9.422 4.041 C9.421 3.073 8.94 2.333 7.639 2.333 Z" fill="#ed1c24"/></g><g transform="matrix(1 0 0 1 156.95 18.6)"><path d="M11.768 15.934 C11.118 18.979 11.231 19.889 11.627 20.572 L8.968 21.198 C8.6 20.743 8.374 20.032 8.43 19.121 C7.327 20.486 5.856 21.227 4.215 21.227 C1.358 21.227 0 19.519 0 16.276 C0 13.402 1.131 10.328 3.14 8.337 C4.498 7 6.279 6.316 7.921 6.316 C9.194 6.316 10.184 6.515 10.665 6.772 C10.665 6.629 10.919 5.32 11.033 4.837 L12.051 0 L15.021 0.512 L11.768 15.934 Z M7.808 8.849 C6.902 8.849 5.885 9.304 5.205 10.157 C4.045 11.58 3.254 14.369 3.254 16.332 C3.254 17.897 3.819 18.722 4.979 18.722 C6.167 18.722 7.723 17.669 8.6 16.162 L10.043 9.419 C9.449 9.02 8.855 8.849 7.808 8.849 Z" fill="#ed1c24"/></g><g transform="matrix(1 0 0 1 171.97 18.89)"><path d="M3.168 20.657 L0 20.657 L2.999 6.43 L6.252 5.947 L3.168 20.657 Z M5.517 4.182 C4.385 4.182 3.451 3.244 3.451 2.105 C3.451 0.939 4.385 0 5.545 0 C6.676 0 7.581 0.939 7.581 2.077 C7.581 3.244 6.676 4.182 5.517 4.182 Z" fill="#ed1c24"/></g><g transform="matrix(1 0 0 1 179.83 20.88)"><path d="M7.724 6.489 L4.98 6.489 L3.367 14.227 C3.254 14.768 3.197 15.251 3.197 15.622 C3.197 16.533 3.622 16.817 4.527 16.817 C4.979 16.817 5.517 16.732 5.969 16.532 L5.969 18.467 C4.979 18.865 3.989 19.065 2.999 19.065 C1.076 19.065 0 18.097 0 16.646 C0 16.134 0.057 15.394 0.198 14.682 L1.923 6.488 L0.311 6.488 L0.763 4.268 L2.376 4.268 C2.659 2.96 2.942 1.85 3.309 0.768 L6.619 0 C6.223 1.224 5.742 2.903 5.459 4.268 L8.882 4.268 L7.724 6.489 Z" fill="#ed1c24"/></g><g transform="matrix(1 0 0 1 194.88 17.27)"><path d="M13.046 10.478 C15.385 10.929 16.572 12.734 16.572 14.959 C16.572 16.603 15.77 18.634 14.169 20.151 C12.501 21.698 10.738 22.278 7.052 22.278 L0 22.278 L4.745 0 L11.668 0 C15.866 0 17.887 1.838 17.887 4.836 C17.887 7.255 16.379 9.543 13.046 10.478 Z M9.04 12.251 L5.77 12.251 L4.295 19.248 L7.821 19.248 C9.136 19.248 10.097 18.893 10.834 18.377 C11.796 17.7 12.533 16.314 12.533 14.928 C12.533 13.154 11.667 12.251 9.04 12.251 Z M10.738 3.128 L7.661 3.128 L6.411 9.189 L9.616 9.189 C10.995 9.189 11.829 8.931 12.47 8.414 C13.271 7.77 13.847 6.803 13.847 5.578 C13.847 3.966 13.079 3.128 10.738 3.128 Z" fill="#ed1c24"/></g><g transform="matrix(1 0 0 1 213.5 24.81)"><path d="M12.305 4.382 L11.145 10.073 C10.778 11.808 10.948 12.548 11.655 13.316 L9.109 15.223 C8.345 14.597 8.035 13.8 8.035 12.861 C7.016 14.255 5.573 15.08 3.734 15.08 C1.5 15.08 0 13.572 0 10.499 C0 7.313 1.188 4.24 3.027 2.333 C4.555 0.768 6.421 0 8.712 0 C10.353 0 12.023 0.341 13.154 1.081 C12.899 1.877 12.504 3.357 12.305 4.382 Z M8.345 2.475 C7.071 2.475 6.167 2.76 5.063 4.068 C3.79 5.605 3.196 8.393 3.196 10.413 C3.196 11.979 3.706 12.576 4.752 12.576 C6.054 12.576 7.496 11.267 8.147 9.815 L9.675 2.759 C9.392 2.589 8.825 2.475 8.345 2.475 Z" fill="#ed1c24"/></g><g transform="matrix(1 0 0 1 227.73 24.69)"><path d="M13.154 4.553 L10.976 14.853 L7.892 14.853 L9.901 5.321 C10.043 4.695 10.099 4.24 10.099 3.927 C10.099 3.102 9.731 2.788 8.967 2.788 C7.949 2.788 6.534 3.5 5.035 5.463 L3.055 14.852 L0 14.852 L2.092 4.894 C2.432 3.215 2.461 2.247 2.15 1.195 L5.036 0 C5.318 0.655 5.488 1.707 5.29 2.703 C6.647 1.053 8.458 0.143 10.439 0.143 C12.221 0.143 13.296 1.252 13.296 2.988 C13.295 3.471 13.267 4.069 13.154 4.553 Z" fill="#ed1c24"/></g><g transform="matrix(1 0 0 1 242.8 18.43)"><path d="M6.506 5.15 L3.111 21.113 L0 21.113 L3.366 5.207 C3.763 3.386 3.818 1.964 3.592 1.081 L6.817 0 C7.071 0.797 7.043 2.618 6.506 5.15 Z M8.118 12.975 L12.419 20.914 L8.939 21.312 L4.95 12.89 L10.863 6.46 L14.2 7.028 L8.118 12.975 Z" fill="#ed1c24"/></g></svg>