<svg xmlns="http://www.w3.org/2000/svg" width="22" height="22" viewBox="0 0 22 22" fill="none"><g transform="matrix(1 0 0 1 2.75 2.75)"><path d="M1.833 0 L1.833 0.75 L14.667 0.75 L14.667 0 L14.667 -0.75 L1.833 -0.75 L1.833 0 Z M14.667 0 L14.667 0.75 C15.265 0.75 15.75 1.235 15.75 1.833 L16.5 1.833 L17.25 1.833 C17.25 0.407 16.093 -0.75 14.667 -0.75 L14.667 0 Z M16.5 1.833 L15.75 1.833 L15.75 14.667 L16.5 14.667 L17.25 14.667 L17.25 1.833 L16.5 1.833 Z M16.5 14.667 L15.75 14.667 C15.75 15.265 15.265 15.75 14.667 15.75 L14.667 16.5 L14.667 17.25 C16.093 17.25 17.25 16.093 17.25 14.667 L16.5 14.667 Z M14.667 16.5 L14.667 15.75 L1.833 15.75 L1.833 16.5 L1.833 17.25 L14.667 17.25 L14.667 16.5 Z M1.833 16.5 L1.833 15.75 C1.235 15.75 0.75 15.265 0.75 14.667 L0 14.667 L-0.75 14.667 C-0.75 16.093 0.407 17.25 1.833 17.25 L1.833 16.5 Z M0 14.667 L0.75 14.667 L0.75 1.833 L0 1.833 L-0.75 1.833 L-0.75 14.667 L0 14.667 Z M0 1.833 L0.75 1.833 C0.75 1.235 1.235 0.75 1.833 0.75 L1.833 0 L1.833 -0.75 C0.407 -0.75 -0.75 0.407 -0.75 1.833 L0 1.833 Z" fill="#ffd21f"/></g><g transform="matrix(1 0 0 1 6.42 6.42)"><path d="M0 0 L0 -0.75 C-0.414 -0.75 -0.75 -0.414 -0.75 0 L0 0 Z M2.75 0 L3.5 0 C3.5 -0.414 3.164 -0.75 2.75 -0.75 L2.75 0 Z M2.75 8.25 L2.75 9 C3.164 9 3.5 8.664 3.5 8.25 L2.75 8.25 Z M0 8.25 L-0.75 8.25 C-0.75 8.664 -0.414 9 0 9 L0 8.25 Z M0 0 L0 0.75 L2.75 0.75 L2.75 0 L2.75 -0.75 L0 -0.75 L0 0 Z M2.75 0 L2 0 L2 8.25 L2.75 8.25 L3.5 8.25 L3.5 0 L2.75 0 Z M2.75 8.25 L2.75 7.5 L0 7.5 L0 8.25 L0 9 L2.75 9 L2.75 8.25 Z M0 8.25 L0.75 8.25 L0.75 0 L0 0 L-0.75 0 L-0.75 8.25 L0 8.25 Z" fill="#ffd21f"/></g><g transform="matrix(1 0 0 1 12.83 6.42)"><path d="M0 0 L0 -0.75 C-0.414 -0.75 -0.75 -0.414 -0.75 0 L0 0 Z M2.75 0 L3.5 0 C3.5 -0.414 3.164 -0.75 2.75 -0.75 L2.75 0 Z M2.75 4.583 L2.75 5.333 C3.164 5.333 3.5 4.998 3.5 4.583 L2.75 4.583 Z M0 4.583 L-0.75 4.583 C-0.75 4.998 -0.414 5.333 0 5.333 L0 4.583 Z M0 0 L0 0.75 L2.75 0.75 L2.75 0 L2.75 -0.75 L0 -0.75 L0 0 Z M2.75 0 L2 0 L2 4.583 L2.75 4.583 L3.5 4.583 L3.5 0 L2.75 0 Z M2.75 4.583 L2.75 3.833 L0 3.833 L0 4.583 L0 5.333 L2.75 5.333 L2.75 4.583 Z M0 4.583 L0.75 4.583 L0.75 0 L0 0 L-0.75 0 L-0.75 4.583 L0 4.583 Z" fill="#ffd21f"/></g></svg>