<svg xmlns="http://www.w3.org/2000/svg" width="44" height="44" viewBox="0 0 44 44" fill="none"><g transform="matrix(1 0 0 1 0 0)"><path d="M0 8 C0 3.582 3.582 0 8 0 L36 0 C40.418 0 44 3.582 44 8 L44 36 C44 40.418 40.418 44 36 44 L8 44 C3.582 44 0 40.418 0 36 L0 8 Z" fill="#c8c8c8"/></g><g transform="matrix(1 0 0 1 14.58 16.5)"><path d="M13.844 0 L1.194 0 C0.636 0 0 0.386 0 1.009 L0 16.277 C0 16.884 0.619 17.502 1.194 17.502 L5.527 17.502 L5.527 14.329 L9.416 14.329 L9.416 17.502 L13.844 17.502 C14.451 17.502 14.841 16.857 14.841 16.277 L14.841 1.009 C14.841 0.424 14.441 0 13.844 0 Z M4.606 12.487 L1.842 12.487 L1.842 10.44 L4.606 10.44 L4.606 12.487 Z M4.606 8.7 L1.842 8.7 L1.842 6.653 L4.606 6.653 L4.606 8.7 Z M4.606 4.913 L1.842 4.913 L1.842 2.968 L4.606 2.968 L4.606 4.913 Z M8.905 12.487 L6.039 12.487 L6.039 10.44 L8.905 10.44 L8.905 12.487 Z M8.905 8.7 L6.039 8.7 L6.039 6.653 L8.905 6.653 L8.905 8.7 Z M8.905 4.913 L6.039 4.913 L6.039 2.968 L8.905 2.968 L8.905 4.913 Z M12.999 12.487 L10.338 12.487 L10.338 10.44 L12.999 10.44 L12.999 12.487 Z M12.999 8.7 L10.338 8.7 L10.338 6.653 L12.999 6.653 L12.999 8.7 Z M12.999 4.913 L10.338 4.913 L10.338 2.968 L12.999 2.968 L12.999 4.913 Z" fill="#000000"/></g><g transform="matrix(1 0 0 1 15.36 11.33)"><path d="M0.184 2.072 L1.139 2.771 L0.776 3.876 C0.717 4.056 0.765 4.177 0.816 4.248 C0.93 4.405 1.156 4.436 1.35 4.295 L2.305 3.602 L3.261 4.3 C3.345 4.361 3.432 4.392 3.519 4.392 C3.63 4.392 3.731 4.341 3.795 4.253 C3.846 4.182 3.895 4.061 3.836 3.881 L3.471 2.763 L4.423 2.074 C4.61 1.941 4.635 1.761 4.595 1.636 C4.555 1.513 4.433 1.381 4.207 1.381 L3.02 1.381 L2.661 0.292 C2.573 0.021 2.367 0 2.305 0 C2.244 0 2.038 0.021 1.951 0.291 L1.591 1.381 L0.404 1.381 C0.179 1.381 0.056 1.513 0.016 1.636 C-0.023 1.761 0.001 1.941 0.184 2.072 Z" fill="#000000"/></g><g transform="matrix(1 0 0 1 19.79 10)"><path d="M0.184 2.072 L1.139 2.771 L0.776 3.877 C0.717 4.056 0.765 4.177 0.816 4.248 C0.93 4.405 1.156 4.436 1.35 4.295 L2.305 3.602 L3.261 4.3 C3.345 4.361 3.432 4.392 3.519 4.392 C3.63 4.392 3.731 4.341 3.795 4.253 C3.846 4.182 3.895 4.061 3.836 3.881 L3.471 2.762 L4.424 2.074 C4.611 1.941 4.635 1.76 4.595 1.636 C4.555 1.512 4.433 1.38 4.207 1.38 L3.02 1.38 L2.661 0.293 C2.573 0.021 2.367 0 2.306 0 C2.245 0 2.038 0.021 1.951 0.291 L1.591 1.38 L0.404 1.38 C0.179 1.38 0.056 1.512 0.017 1.636 C-0.023 1.76 0 1.941 0.184 2.072 Z" fill="#000000"/></g><g transform="matrix(1 0 0 1 24.22 11.33)"><path d="M0.016 1.636 C-0.023 1.761 0.001 1.941 0.184 2.072 L1.139 2.771 L0.776 3.876 C0.717 4.056 0.765 4.177 0.816 4.248 C0.93 4.405 1.156 4.436 1.35 4.295 L2.305 3.602 L3.261 4.3 C3.345 4.361 3.432 4.392 3.519 4.392 C3.63 4.392 3.731 4.341 3.795 4.253 C3.846 4.182 3.895 4.061 3.836 3.881 L3.471 2.763 L4.424 2.074 C4.611 1.941 4.635 1.761 4.595 1.637 C4.555 1.513 4.433 1.381 4.207 1.381 L3.02 1.381 L2.661 0.292 C2.573 0.021 2.367 0 2.306 0 C2.245 0 2.039 0.021 1.951 0.291 L1.591 1.381 L0.404 1.381 C0.179 1.381 0.056 1.513 0.016 1.636 Z" fill="#000000"/></g></svg>