<svg xmlns="http://www.w3.org/2000/svg" width="44" height="44" viewBox="0 0 44 44" fill="none"><g transform="matrix(1 0 0 1 0 0)"><path d="M0 8 C0 3.582 3.582 0 8 0 L36 0 C40.418 0 44 3.582 44 8 L44 36 C44 40.418 40.418 44 36 44 L8 44 C3.582 44 0 40.418 0 36 L0 8 Z" fill="#ffd21f"/></g><g transform="matrix(1 0 0 1 13.12 10)"><path d="M3.801 24 C3.682 24 3.561 23.97 3.452 23.907 C3.165 23.742 3.031 23.4 3.131 23.085 L5.614 15.24 L0.703 15.24 C0.442 15.24 0.203 15.096 0.081 14.865 C-0.041 14.634 -0.024 14.355 0.123 14.139 L9.611 0.305 C9.742 0.114 9.959 0 10.191 0 L16.759 0 C17.026 0 17.27 0.151 17.389 0.39 C17.508 0.629 17.481 0.915 17.32 1.127 L12.185 7.912 L17.052 7.912 C17.33 7.912 17.582 8.075 17.695 8.329 C17.807 8.583 17.76 8.88 17.574 9.086 L4.324 23.768 C4.186 23.92 3.995 24 3.801 24 Z" fill="#0a0a0a"/></g></svg>